<mxfile host="app.diagrams.net" modified="2023-06-19T02:36:32.869Z" agent="Mozilla/5.0 (Windows NT 10.0; Win64; x64) AppleWebKit/537.36 (KHTML, like Gecko) Chrome/103.0.0.0 Safari/537.36" version="21.3.8" etag="dOD1TffLqdFbk4r_8nYS" type="github">
  <diagram name="第 1 页" id="b9DMjCfWu0Y0Q1YcICcJ">
    <mxGraphModel>
      <root>
        <mxCell id="0" />
        <mxCell id="1" parent="0" />
      </root>
    </mxGraphModel>
  </diagram>
</mxfile>
